<svg width="5001" height="2812" viewBox="0 0 5001 2812" fill="none" xmlns="http://www.w3.org/2000/svg">
<path d="M667.5 1242.67C657.5 1242.67 648 1240.01 639 1234.67C630.333 1229.34 626 1222.51 626 1214.17C626 1209.84 626.667 1205.17 628 1200.17C629.667 1195.17 631.167 1190.51 632.5 1186.17C642.833 1154.51 652.5 1125.01 661.5 1097.67C670.5 1070.01 679.5 1043.51 688.5 1018.17C697.833 992.505 707.5 966.839 717.5 941.172C727.833 915.505 739.333 888.672 752 860.672C739.333 863.339 728.5 866.839 719.5 871.172C710.5 875.172 703.167 878.839 697.5 882.172C691.833 885.172 687.667 886.672 685 886.672C683.333 886.672 680.833 885.505 677.5 883.172C674.5 880.839 671.833 878.172 669.5 875.172C667.167 872.172 666 869.505 666 867.172C675.333 863.172 686.167 859.005 698.5 854.672C711.167 850.339 724.833 846.672 739.5 843.672C754.167 840.672 768.833 839.172 783.5 839.172C799.167 839.172 815.167 841.339 831.5 845.672C847.833 849.672 862.833 855.839 876.5 864.172C890.5 872.172 901.667 882.339 910 894.672C918.667 906.672 923 920.839 923 937.172C923 954.839 919 970.005 911 982.672C903 995.339 892.333 1006.01 879 1014.67C866 1023.34 851.833 1030.34 836.5 1035.67C821.167 1041.01 805.833 1045.01 790.5 1047.67C775.5 1050.34 762 1052.17 750 1053.17C738 1054.17 729 1054.67 723 1054.67H720C710.667 1087.67 701.5 1120.67 692.5 1153.67C683.5 1186.34 675.167 1216.01 667.5 1242.67ZM724.5 1039.17C743.167 1037.84 761.833 1034.67 780.5 1029.67C799.167 1024.67 816 1017.84 831 1009.17C846.333 1000.17 858.5 989.005 867.5 975.672C876.833 962.339 881.5 946.839 881.5 929.172C881.5 912.505 877 899.005 868 888.672C859.333 878.339 848 870.505 834 865.172C820.333 859.839 805.833 857.005 790.5 856.672C778.5 880.005 767 907.672 756 939.672C745 971.339 734.5 1004.51 724.5 1039.17ZM896.672 1339.17C888.339 1339.17 880.505 1336.51 873.172 1331.17C866.172 1326.17 862.672 1318.01 862.672 1306.67C862.672 1296.01 865.839 1286.34 872.172 1277.67C878.505 1269.34 886.672 1261.51 896.672 1254.17C906.672 1247.17 917.339 1240.67 928.672 1234.67C940.339 1229.01 951.505 1223.67 962.172 1218.67C965.839 1209.01 969.839 1196.84 974.172 1182.17C978.839 1167.17 982.839 1153.34 986.172 1140.67C975.839 1155.01 964.839 1167.67 953.172 1178.67C941.505 1189.67 928.505 1195.17 914.172 1195.17C908.172 1195.17 901.839 1194.01 895.172 1191.67C888.505 1189.01 882.839 1184.67 878.172 1178.67C873.839 1172.34 871.672 1164.01 871.672 1153.67C871.672 1145.01 873.172 1134.51 876.172 1122.17C879.505 1109.84 883.505 1097.84 888.172 1086.17C893.172 1074.17 898.339 1064.34 903.672 1056.67C909.005 1048.67 913.672 1044.67 917.672 1044.67C919.672 1044.67 922.505 1045.51 926.172 1047.17C930.172 1048.51 934.005 1050.51 937.672 1053.17C941.339 1055.51 943.672 1058.17 944.672 1061.17C941.672 1065.17 938.339 1071.01 934.672 1078.67C931.005 1086.01 927.505 1094.34 924.172 1103.67C920.839 1112.67 918.005 1121.51 915.672 1130.17C913.672 1138.84 912.672 1146.34 912.672 1152.67C912.672 1157.67 913.672 1162.01 915.672 1165.67C917.672 1169.34 921.505 1171.17 927.172 1171.17C934.505 1171.17 942.005 1168.17 949.672 1162.17C957.672 1156.17 965.339 1148.51 972.672 1139.17C980.339 1129.84 987.172 1120.34 993.172 1110.67C993.839 1108.34 994.505 1104.67 995.172 1099.67C995.839 1094.67 997.005 1089.51 998.672 1084.17C1000.34 1078.51 1003.17 1073.34 1007.17 1068.67C1011.51 1064.01 1017.51 1061.67 1025.17 1061.67C1027.84 1061.67 1030.34 1061.84 1032.67 1062.17C1035.01 1062.51 1037.84 1063.01 1041.17 1063.67C1041.17 1068.67 1039.34 1078.51 1035.67 1093.17C1032.34 1107.51 1027.84 1124.17 1022.17 1143.17C1016.51 1162.17 1010.17 1181.17 1003.17 1200.17C1017.17 1194.51 1031.67 1185.17 1046.67 1172.17C1062.01 1158.84 1074.34 1140.01 1083.67 1115.67L1092.17 1122.67C1087.17 1139.34 1079.51 1153.84 1069.17 1166.17C1059.17 1178.51 1047.84 1189.01 1035.17 1197.67C1022.51 1206.34 1009.67 1213.51 996.672 1219.17C987.672 1240.84 977.839 1260.84 967.172 1279.17C956.839 1297.51 945.839 1312.01 934.172 1322.67C922.505 1333.67 910.005 1339.17 896.672 1339.17ZM891.672 1320.67C898.005 1320.67 906.839 1314.01 918.172 1300.67C929.505 1287.34 941.005 1267.34 952.672 1240.67C942.005 1246.01 931.172 1252.17 920.172 1259.17C909.505 1266.51 900.505 1274.17 893.172 1282.17C885.839 1290.17 882.172 1298.34 882.172 1306.67C882.172 1310.01 882.839 1313.17 884.172 1316.17C885.839 1319.17 888.339 1320.67 891.672 1320.67ZM1120.37 1222.17C1104.7 1222.17 1092.2 1217.84 1082.87 1209.17C1073.87 1200.51 1069.37 1187.51 1069.37 1170.17C1069.37 1160.51 1070.7 1149.01 1073.37 1135.67C1076.03 1122.34 1079.53 1108.17 1083.87 1093.17C1088.53 1077.84 1093.53 1062.84 1098.87 1048.17C1095.87 1047.17 1093.03 1046.34 1090.37 1045.67C1088.03 1044.67 1084.87 1043.34 1080.87 1041.67V1026.17C1086.87 1027.17 1091.37 1028.17 1094.37 1029.17C1097.37 1029.84 1101.03 1030.51 1105.37 1031.17C1114.7 1007.51 1124.7 985.672 1135.37 965.672C1146.03 945.672 1156.37 929.672 1166.37 917.672C1176.37 905.672 1185.03 899.672 1192.37 899.672C1196.03 899.672 1199.37 901.005 1202.37 903.672C1205.37 906.339 1206.87 909.339 1206.87 912.672C1206.87 916.672 1204.87 923.172 1200.87 932.172C1196.87 941.172 1191.7 951.339 1185.37 962.672C1179.37 973.672 1173.2 984.672 1166.87 995.672C1160.87 1006.67 1155.37 1016.17 1150.37 1024.17C1145.7 1032.17 1142.87 1037.34 1141.87 1039.67C1150.53 1041.01 1158.53 1042.17 1165.87 1043.17C1173.2 1043.84 1180.53 1044.17 1187.87 1044.17C1197.53 1044.17 1207.53 1043.51 1217.87 1042.17C1228.2 1040.84 1239.7 1039.01 1252.37 1036.67C1261.37 1012.67 1271.37 989.172 1282.37 966.172C1293.37 942.839 1304.53 922.005 1315.87 903.672C1327.53 885.005 1338.53 870.172 1348.87 859.172C1359.53 847.839 1368.87 842.172 1376.87 842.172C1383.53 842.172 1388.7 846.005 1392.37 853.672C1396.03 861.005 1397.87 869.005 1397.87 877.672C1397.87 888.672 1395.03 902.005 1389.37 917.672C1383.7 933.339 1375.87 949.505 1365.87 966.172C1355.87 982.839 1344.03 998.505 1330.37 1013.17C1317.03 1027.84 1302.53 1039.67 1286.87 1048.67C1282.53 1058.67 1278.53 1071.17 1274.87 1086.17C1271.53 1100.84 1268.87 1115.17 1266.87 1129.17C1264.87 1143.17 1263.87 1154.34 1263.87 1162.67C1271.87 1141.67 1280.87 1122.34 1290.87 1104.67C1300.87 1087.01 1312.03 1072.84 1324.37 1062.17C1337.03 1051.51 1350.7 1046.17 1365.37 1046.17C1380.7 1046.17 1391.87 1051.34 1398.87 1061.67C1405.87 1071.67 1409.37 1082.67 1409.37 1094.67C1409.37 1104.34 1407.53 1114.17 1403.87 1124.17C1400.53 1133.84 1397.03 1143.17 1393.37 1152.17C1390.03 1160.84 1388.37 1168.67 1388.37 1175.67C1388.37 1181.67 1389.7 1185.84 1392.37 1188.17C1395.37 1190.51 1398.53 1191.67 1401.87 1191.67C1409.2 1191.67 1417.7 1188.01 1427.37 1180.67C1437.37 1173.01 1447.03 1163.01 1456.37 1150.67C1466.03 1138.34 1474.03 1125.17 1480.37 1111.17L1489.87 1120.17C1482.53 1136.84 1473.7 1152.17 1463.37 1166.17C1453.03 1180.17 1441.53 1191.17 1428.87 1199.17C1416.53 1207.51 1403.37 1211.67 1389.37 1211.67C1376.7 1211.67 1366.87 1208.34 1359.87 1201.67C1353.2 1195.01 1349.87 1186.67 1349.87 1176.67C1349.87 1169.67 1351.03 1162.17 1353.37 1154.17C1356.03 1145.84 1358.53 1137.34 1360.87 1128.67C1363.2 1120.01 1364.37 1112.01 1364.37 1104.67C1364.37 1097.01 1362.7 1091.51 1359.37 1088.17C1356.37 1084.84 1352.2 1083.17 1346.87 1083.17C1338.87 1083.17 1331.53 1086.51 1324.87 1093.17C1318.53 1099.51 1312.7 1107.84 1307.37 1118.17C1302.03 1128.51 1297.03 1139.51 1292.37 1151.17C1287.7 1162.51 1283.03 1173.34 1278.37 1183.67C1274.03 1194.01 1269.37 1202.34 1264.37 1208.67C1259.7 1215.34 1254.53 1218.67 1248.87 1218.67C1243.87 1218.67 1239.7 1216.17 1236.37 1211.17C1233.37 1206.17 1230.87 1200.17 1228.87 1193.17C1226.87 1186.17 1225.53 1179.34 1224.87 1172.67C1224.2 1165.67 1223.87 1160.34 1223.87 1156.67C1210.53 1176.01 1194.87 1191.67 1176.87 1203.67C1159.2 1216.01 1140.37 1222.17 1120.37 1222.17ZM1134.87 1197.17C1151.53 1197.17 1168.2 1190.01 1184.87 1175.67C1201.87 1161.01 1216.53 1141.01 1228.87 1115.67C1230.87 1105.67 1233.03 1096.17 1235.37 1087.17C1237.7 1078.17 1240.7 1068.34 1244.37 1057.67C1234.37 1059.67 1224.7 1061.17 1215.37 1062.17C1206.03 1063.17 1196.87 1063.67 1187.87 1063.67C1178.87 1063.67 1169.87 1063.17 1160.87 1062.17C1151.87 1061.17 1142.7 1059.84 1133.37 1058.17C1126.03 1074.51 1120.03 1091.01 1115.37 1107.67C1110.7 1124.34 1108.37 1141.34 1108.37 1158.67C1108.37 1172.34 1110.2 1182.17 1113.87 1188.17C1117.87 1194.17 1124.87 1197.17 1134.87 1197.17ZM1296.87 1017.17C1306.53 1008.84 1315.53 999.505 1323.87 989.172C1332.2 978.839 1339.53 968.339 1345.87 957.672C1352.53 946.672 1358.03 936.339 1362.37 926.672C1367.03 916.672 1370.2 908.005 1371.87 900.672C1372.87 896.005 1373.37 892.339 1373.37 889.672C1370.7 890.339 1366.37 894.005 1360.37 900.672C1354.7 907.339 1348.03 916.505 1340.37 928.172C1332.7 939.505 1325.03 952.839 1317.37 968.172C1309.7 983.172 1302.87 999.505 1296.87 1017.17ZM1501.37 1215.17C1486.38 1215.17 1476.04 1210.17 1470.38 1200.17C1465.04 1190.51 1462.37 1179.84 1462.37 1168.17C1462.37 1157.51 1464.04 1146.67 1467.37 1135.67C1470.71 1124.34 1475.21 1113.84 1480.88 1104.17C1486.88 1094.51 1493.38 1086.84 1500.38 1081.17C1507.71 1075.17 1515.04 1072.17 1522.38 1072.17C1524.71 1072.17 1527.38 1072.67 1530.38 1073.67C1533.71 1074.34 1536.04 1075.51 1537.38 1077.17C1533.38 1082.17 1529.21 1088.34 1524.88 1095.67C1520.88 1103.01 1517.04 1110.84 1513.38 1119.17C1510.04 1127.17 1507.38 1135.34 1505.38 1143.67C1503.38 1152.01 1502.38 1159.67 1502.38 1166.67C1502.38 1173.34 1503.54 1178.84 1505.88 1183.17C1508.54 1187.51 1513.04 1189.67 1519.38 1189.67C1525.71 1189.67 1533.21 1186.17 1541.87 1179.17C1550.88 1171.84 1559.38 1163.51 1567.38 1154.17C1556.71 1144.51 1549.04 1134.01 1544.38 1122.67C1539.71 1111.01 1537.38 1097.01 1537.38 1080.67C1537.38 1073.67 1539.04 1065.67 1542.38 1056.67C1546.04 1047.67 1551.71 1039.84 1559.38 1033.17C1567.38 1026.51 1578.04 1023.17 1591.38 1023.17C1605.71 1023.17 1615.71 1027.17 1621.38 1035.17C1627.38 1043.17 1630.38 1052.67 1630.38 1063.67C1630.38 1076.01 1627.04 1089.84 1620.38 1105.17C1614.04 1120.51 1606.38 1135.01 1597.38 1148.67C1601.38 1150.67 1606.04 1151.67 1611.38 1151.67C1616.38 1151.67 1622.38 1150.51 1629.38 1148.17C1636.38 1145.84 1643.21 1142.01 1649.88 1136.67C1656.54 1131.01 1661.88 1123.51 1665.88 1114.17L1674.88 1120.67C1667.54 1137.67 1657.71 1150.17 1645.38 1158.17C1633.38 1165.84 1621.54 1169.67 1609.88 1169.67C1605.54 1169.67 1601.21 1169.34 1596.87 1168.67C1592.54 1167.67 1588.54 1166.51 1584.88 1165.17C1573.54 1178.51 1560.54 1190.17 1545.88 1200.17C1531.21 1210.17 1516.38 1215.17 1501.37 1215.17ZM1580.38 1138.17C1588.38 1126.51 1595.21 1114.01 1600.88 1100.67C1606.54 1087.34 1609.38 1075.01 1609.38 1063.67C1609.38 1056.01 1608.21 1050.51 1605.88 1047.17C1603.54 1043.51 1600.04 1041.67 1595.38 1041.67C1589.04 1041.67 1582.54 1046.17 1575.88 1055.17C1569.21 1064.17 1565.88 1075.51 1565.88 1089.17C1565.88 1096.17 1567.04 1104.67 1569.38 1114.67C1572.04 1124.67 1575.71 1132.51 1580.38 1138.17ZM1822.91 1209.17C1809.91 1209.17 1799.91 1205.84 1792.91 1199.17C1786.24 1192.84 1782.91 1184.67 1782.91 1174.67C1782.91 1168.01 1784.08 1161.01 1786.41 1153.67C1788.74 1146.01 1791.08 1138.34 1793.41 1130.67C1795.74 1123.01 1796.91 1115.67 1796.91 1108.67C1796.91 1101.34 1795.08 1096.34 1791.41 1093.67C1788.08 1090.67 1784.08 1089.17 1779.41 1089.17C1769.41 1089.17 1759.08 1093.34 1748.41 1101.67C1738.08 1109.67 1727.91 1119.84 1717.91 1132.17C1708.24 1144.51 1699.08 1157.34 1690.41 1170.67C1681.74 1184.01 1674.24 1196.01 1667.91 1206.67C1661.58 1206.67 1655.58 1205.51 1649.91 1203.17C1644.24 1201.17 1639.41 1197.51 1635.41 1192.17C1635.74 1190.51 1637.74 1185.51 1641.41 1177.17C1644.74 1168.51 1648.58 1158.34 1652.91 1146.67C1657.24 1134.67 1661.08 1122.17 1664.41 1109.17C1667.74 1096.17 1669.41 1084.34 1669.41 1073.67C1671.74 1071.01 1675.24 1068.34 1679.91 1065.67C1684.91 1063.01 1690.08 1061.67 1695.41 1061.67C1707.08 1061.67 1712.91 1066.67 1712.91 1076.67C1712.91 1080.67 1712.08 1086.67 1710.41 1094.67C1709.08 1102.34 1707.08 1111.17 1704.41 1121.17C1713.08 1109.51 1722.58 1098.51 1732.91 1088.17C1743.24 1077.84 1753.91 1069.51 1764.91 1063.17C1776.24 1056.51 1787.58 1053.17 1798.91 1053.17C1813.24 1053.17 1823.74 1058.01 1830.41 1067.67C1837.41 1077.34 1840.91 1088.01 1840.91 1099.67C1840.91 1109.67 1839.24 1119.01 1835.91 1127.67C1832.58 1136.34 1829.24 1144.51 1825.91 1152.17C1822.91 1159.84 1821.41 1167.34 1821.41 1174.67C1821.41 1180.01 1822.58 1183.84 1824.91 1186.17C1827.58 1188.17 1830.41 1189.17 1833.41 1189.17C1841.41 1189.17 1849.74 1185.34 1858.41 1177.67C1867.08 1170.01 1875.24 1160.34 1882.91 1148.67C1890.91 1136.67 1897.91 1124.67 1903.91 1112.67L1912.41 1119.67C1905.41 1136.01 1897.41 1151.01 1888.41 1164.67C1879.74 1178.01 1869.91 1188.84 1858.91 1197.17C1848.24 1205.17 1836.24 1209.17 1822.91 1209.17Z" fill="#FE3C3C"/>
<path d="M2116.12 1242.67C2104.45 1242.67 2093.29 1241.01 2082.62 1237.67C2072.29 1234.67 2063.29 1228.01 2055.62 1217.67C2056.62 1209.67 2058.95 1198.01 2062.62 1182.67C2066.62 1167.34 2071.45 1150.01 2077.12 1130.67C2082.79 1111.01 2088.79 1090.84 2095.12 1070.17C2101.45 1049.51 2107.62 1029.84 2113.62 1011.17C2119.95 992.172 2125.45 975.672 2130.12 961.672C2135.12 947.339 2138.79 937.005 2141.12 930.672C2142.12 928.005 2143.79 924.005 2146.12 918.672C2148.45 913.339 2151.45 907.839 2155.12 902.172C2158.79 896.505 2162.95 891.839 2167.62 888.172C2172.62 884.172 2177.95 882.172 2183.62 882.172C2189.29 882.172 2195.62 884.505 2202.62 889.172C2192.29 912.505 2181.79 938.505 2171.12 967.172C2160.79 995.505 2150.79 1024.84 2141.12 1055.17C2131.79 1085.17 2123.12 1114.51 2115.12 1143.17C2107.45 1171.51 2101.12 1197.51 2096.12 1221.17C2098.79 1222.17 2102.45 1222.84 2107.12 1223.17C2112.12 1223.84 2116.79 1224.17 2121.12 1224.17C2142.79 1224.17 2163.45 1218.84 2183.12 1208.17C2202.79 1197.84 2220.79 1184.01 2237.12 1166.67C2253.79 1149.01 2268.29 1129.34 2280.62 1107.67C2292.95 1085.67 2302.45 1063.17 2309.12 1040.17C2315.79 1017.17 2319.12 995.172 2319.12 974.172C2319.12 947.172 2314.45 925.339 2305.12 908.672C2296.12 891.672 2283.62 879.339 2267.62 871.672C2251.62 863.672 2233.29 859.672 2212.62 859.672C2190.95 859.672 2171.45 863.672 2154.12 871.672C2136.79 879.339 2123.12 890.005 2113.12 903.672C2103.45 917.005 2098.62 932.339 2098.62 949.672C2098.62 953.339 2098.95 957.339 2099.62 961.672C2100.29 965.672 2101.45 969.672 2103.12 973.672C2088.79 973.672 2078.45 970.672 2072.12 964.672C2066.12 958.339 2063.12 950.672 2063.12 941.672C2063.12 930.005 2067.29 918.172 2075.62 906.172C2084.29 894.172 2096.12 883.172 2111.12 873.172C2126.45 862.839 2144.12 854.672 2164.12 848.672C2184.12 842.339 2205.79 839.172 2229.12 839.172C2261.79 839.172 2287.95 845.505 2307.62 858.172C2327.29 870.505 2341.45 887.339 2350.12 908.672C2359.12 929.672 2363.62 953.172 2363.62 979.172C2363.62 1007.84 2358.95 1035.34 2349.62 1061.67C2340.62 1087.67 2327.95 1111.67 2311.62 1133.67C2295.62 1155.67 2276.95 1174.84 2255.62 1191.17C2234.62 1207.51 2212.12 1220.17 2188.12 1229.17C2164.45 1238.17 2140.45 1242.67 2116.12 1242.67ZM2385.54 1222.67C2374.54 1222.67 2365.04 1219.01 2357.04 1211.67C2348.7 1204.34 2344.54 1193.34 2344.54 1178.67C2344.54 1167.01 2347.2 1154.34 2352.54 1140.67C2357.87 1127.01 2365.2 1113.51 2374.54 1100.17C2383.87 1086.84 2394.54 1074.84 2406.54 1064.17C2418.54 1053.17 2431.37 1044.34 2445.04 1037.67C2458.7 1031.01 2472.37 1027.67 2486.04 1027.67C2500.37 1027.67 2512.54 1031.34 2522.54 1038.67C2532.54 1046.01 2537.54 1055.67 2537.54 1067.67C2537.54 1076.67 2534.37 1083.17 2528.04 1087.17C2521.7 1091.17 2514.2 1092.34 2505.54 1090.67C2506.2 1087.67 2506.7 1084.67 2507.04 1081.67C2507.7 1078.67 2508.04 1075.51 2508.04 1072.17C2508.04 1065.51 2506.7 1059.51 2504.04 1054.17C2501.37 1048.84 2495.7 1046.17 2487.04 1046.17C2477.7 1046.17 2468.2 1049.34 2458.54 1055.67C2448.87 1062.01 2439.54 1070.34 2430.54 1080.67C2421.87 1090.67 2414.04 1101.84 2407.04 1114.17C2400.04 1126.17 2394.54 1138.01 2390.54 1149.67C2386.54 1161.34 2384.54 1171.84 2384.54 1181.17C2384.54 1191.84 2388.37 1197.17 2396.04 1197.17C2403.7 1197.17 2412.2 1193.51 2421.54 1186.17C2430.87 1178.51 2440.2 1169.01 2449.54 1157.67C2459.2 1146.34 2468.37 1134.84 2477.04 1123.17C2485.7 1111.17 2493.2 1101.01 2499.54 1092.67C2500.54 1091.01 2501.87 1090.17 2503.54 1090.17C2504.87 1090.51 2507.37 1091.34 2511.04 1092.67C2515.04 1093.67 2518.7 1095.34 2522.04 1097.67C2525.37 1100.01 2527.04 1103.01 2527.04 1106.67C2527.04 1110.01 2525.54 1114.34 2522.54 1119.67C2519.87 1124.67 2516.54 1130.34 2512.54 1136.67C2508.87 1142.67 2505.54 1148.84 2502.54 1155.17C2499.87 1161.17 2498.54 1167.01 2498.54 1172.67C2498.54 1177.01 2499.7 1181.17 2502.04 1185.17C2504.37 1188.84 2508.2 1190.67 2513.54 1190.67C2521.54 1190.67 2532.7 1184.84 2547.04 1173.17C2561.7 1161.17 2576.54 1141.01 2591.54 1112.67L2601.04 1122.17C2593.04 1140.17 2583.37 1156.17 2572.04 1170.17C2561.04 1183.84 2549.37 1194.51 2537.04 1202.17C2524.7 1210.17 2512.2 1214.17 2499.54 1214.17C2485.87 1214.17 2475.7 1209.84 2469.04 1201.17C2462.37 1192.51 2458.7 1183.17 2458.04 1173.17C2458.04 1172.51 2458.04 1172.01 2458.04 1171.67C2458.04 1171.34 2458.04 1171.01 2458.04 1170.67C2444.7 1186.67 2432.37 1199.34 2421.04 1208.67C2410.04 1218.01 2398.2 1222.67 2385.54 1222.67ZM2625.2 1222.17C2610.54 1222.17 2598.7 1217.84 2589.7 1209.17C2580.7 1200.51 2576.2 1187.34 2576.2 1169.67C2576.2 1156.01 2578.7 1139.01 2583.7 1118.67C2589.04 1098.34 2595.7 1077.34 2603.7 1055.67C2601.37 1055.01 2598.54 1054.51 2595.2 1054.17C2592.2 1053.51 2589.2 1052.51 2586.2 1051.17V1035.67C2591.54 1036.34 2595.87 1036.84 2599.2 1037.17C2602.87 1037.51 2606.54 1037.84 2610.2 1038.17C2617.2 1020.51 2624.7 1003.51 2632.7 987.172C2641.04 970.505 2649.2 955.672 2657.2 942.672C2665.54 929.672 2673.37 919.505 2680.7 912.172C2688.04 904.505 2694.54 900.672 2700.2 900.672C2703.54 900.672 2706.7 902.005 2709.7 904.672C2712.7 907.005 2714.2 910.505 2714.2 915.172C2714.2 921.839 2710.7 931.339 2703.7 943.672C2697.04 956.005 2688.7 970.505 2678.7 987.172C2668.7 1003.51 2659.04 1021.01 2649.7 1039.67C2652.37 1039.67 2655.04 1039.67 2657.7 1039.67C2660.37 1039.67 2662.87 1039.67 2665.2 1039.67C2679.87 1039.67 2693.04 1039.51 2704.7 1039.17C2716.7 1038.51 2728.87 1037.51 2741.2 1036.17V1052.67C2722.87 1054.34 2706.04 1055.67 2690.7 1056.67C2675.37 1057.67 2660.7 1058.34 2646.7 1058.67C2645.7 1058.67 2644.7 1058.67 2643.7 1058.67C2642.7 1058.67 2641.7 1058.67 2640.7 1058.67C2633.7 1075.01 2627.54 1091.84 2622.2 1109.17C2617.2 1126.17 2614.7 1142.84 2614.7 1159.17C2614.7 1172.84 2616.87 1182.51 2621.2 1188.17C2625.54 1193.84 2632.37 1196.67 2641.7 1196.67C2658.37 1196.67 2675.37 1189.17 2692.7 1174.17C2710.37 1158.84 2725.7 1138.17 2738.7 1112.17L2745.7 1117.17C2737.04 1136.84 2726.2 1154.67 2713.2 1170.67C2700.54 1186.67 2686.7 1199.17 2671.7 1208.17C2656.7 1217.51 2641.2 1222.17 2625.2 1222.17ZM2751.75 1222.67C2740.75 1222.67 2731.25 1219.01 2723.25 1211.67C2714.91 1204.34 2710.75 1193.34 2710.75 1178.67C2710.75 1167.01 2713.41 1154.34 2718.75 1140.67C2724.08 1127.01 2731.41 1113.51 2740.75 1100.17C2750.08 1086.84 2760.75 1074.84 2772.75 1064.17C2784.75 1053.17 2797.58 1044.34 2811.25 1037.67C2824.91 1031.01 2838.58 1027.67 2852.25 1027.67C2866.58 1027.67 2878.75 1031.34 2888.75 1038.67C2898.75 1046.01 2903.75 1055.67 2903.75 1067.67C2903.75 1076.67 2900.58 1083.17 2894.25 1087.17C2887.91 1091.17 2880.41 1092.34 2871.75 1090.67C2872.41 1087.67 2872.91 1084.67 2873.25 1081.67C2873.91 1078.67 2874.25 1075.51 2874.25 1072.17C2874.25 1065.51 2872.91 1059.51 2870.25 1054.17C2867.58 1048.84 2861.91 1046.17 2853.25 1046.17C2843.91 1046.17 2834.41 1049.34 2824.75 1055.67C2815.08 1062.01 2805.75 1070.34 2796.75 1080.67C2788.08 1090.67 2780.25 1101.84 2773.25 1114.17C2766.25 1126.17 2760.75 1138.01 2756.75 1149.67C2752.75 1161.34 2750.75 1171.84 2750.75 1181.17C2750.75 1191.84 2754.58 1197.17 2762.25 1197.17C2769.91 1197.17 2778.41 1193.51 2787.75 1186.17C2797.08 1178.51 2806.41 1169.01 2815.75 1157.67C2825.41 1146.34 2834.58 1134.84 2843.25 1123.17C2851.91 1111.17 2859.41 1101.01 2865.75 1092.67C2866.75 1091.01 2868.08 1090.17 2869.75 1090.17C2871.08 1090.51 2873.58 1091.34 2877.25 1092.67C2881.25 1093.67 2884.91 1095.34 2888.25 1097.67C2891.58 1100.01 2893.25 1103.01 2893.25 1106.67C2893.25 1110.01 2891.75 1114.34 2888.75 1119.67C2886.08 1124.67 2882.75 1130.34 2878.75 1136.67C2875.08 1142.67 2871.75 1148.84 2868.75 1155.17C2866.08 1161.17 2864.75 1167.01 2864.75 1172.67C2864.75 1177.01 2865.91 1181.17 2868.25 1185.17C2870.58 1188.84 2874.41 1190.67 2879.75 1190.67C2887.75 1190.67 2898.91 1184.84 2913.25 1173.17C2927.91 1161.17 2942.75 1141.01 2957.75 1112.67L2967.25 1122.17C2959.25 1140.17 2949.58 1156.17 2938.25 1170.17C2927.25 1183.84 2915.58 1194.51 2903.25 1202.17C2890.91 1210.17 2878.41 1214.17 2865.75 1214.17C2852.08 1214.17 2841.91 1209.84 2835.25 1201.17C2828.58 1192.51 2824.91 1183.17 2824.25 1173.17C2824.25 1172.51 2824.25 1172.01 2824.25 1171.67C2824.25 1171.34 2824.25 1171.01 2824.25 1170.67C2810.91 1186.67 2798.58 1199.34 2787.25 1208.67C2776.25 1218.01 2764.41 1222.67 2751.75 1222.67ZM3192.3 1242.67C3172.96 1242.67 3154.46 1239.34 3136.8 1232.67C3119.46 1226.01 3105.3 1215.84 3094.3 1202.17C3083.3 1188.51 3077.8 1171.51 3077.8 1151.17C3077.8 1133.17 3081.8 1119.17 3089.8 1109.17C3097.8 1098.84 3107.8 1091.67 3119.8 1087.67C3131.8 1083.67 3143.46 1081.67 3154.8 1081.67C3144.13 1093.01 3135.96 1104.67 3130.3 1116.67C3124.96 1128.67 3122.3 1140.17 3122.3 1151.17C3122.3 1162.51 3125.13 1173.17 3130.8 1183.17C3136.8 1192.84 3145.63 1200.67 3157.3 1206.67C3168.96 1213.01 3183.46 1216.17 3200.8 1216.17C3215.8 1216.17 3230.3 1213.67 3244.3 1208.67C3258.63 1203.67 3270.3 1196.17 3279.3 1186.17C3288.63 1176.17 3293.3 1163.67 3293.3 1148.67C3293.3 1135.01 3289.3 1123.34 3281.3 1113.67C3273.63 1103.67 3263.63 1094.84 3251.3 1087.17C3238.96 1079.17 3225.96 1071.67 3212.3 1064.67C3198.63 1057.34 3185.63 1049.51 3173.3 1041.17C3160.96 1032.84 3150.8 1023.17 3142.8 1012.17C3135.13 1001.17 3131.3 988.005 3131.3 972.672C3131.3 959.005 3134.63 944.505 3141.3 929.172C3148.3 913.505 3158.13 898.839 3170.8 885.172C3183.46 871.505 3198.8 860.505 3216.8 852.172C3234.8 843.505 3254.8 839.172 3276.8 839.172C3299.8 839.172 3315.96 844.005 3325.3 853.672C3334.63 863.339 3339.3 876.005 3339.3 891.672C3339.3 904.005 3337.13 917.172 3332.8 931.172C3328.46 945.172 3323.13 958.505 3316.8 971.172C3310.8 983.839 3304.96 994.672 3299.3 1003.67C3291.96 1002.01 3286.46 999.172 3282.8 995.172C3279.13 990.839 3277.3 985.172 3277.3 978.172C3277.3 971.172 3278.63 963.339 3281.3 954.672C3284.3 946.005 3287.63 937.005 3291.3 927.672C3295.3 918.339 3298.63 909.339 3301.3 900.672C3304.3 891.672 3305.8 883.839 3305.8 877.172C3305.8 871.172 3303.96 866.505 3300.3 863.172C3296.96 859.839 3289.96 858.172 3279.3 858.172C3263.3 858.172 3248.63 861.672 3235.3 868.672C3221.96 875.672 3210.3 884.505 3200.3 895.172C3190.63 905.839 3183.13 917.172 3177.8 929.172C3172.46 940.839 3169.8 951.505 3169.8 961.172C3169.8 973.172 3173.63 983.505 3181.3 992.172C3188.96 1000.51 3198.8 1008.17 3210.8 1015.17C3223.13 1022.17 3235.96 1029.17 3249.3 1036.17C3262.96 1043.17 3275.8 1051.01 3287.8 1059.67C3300.13 1068.34 3310.13 1078.67 3317.8 1090.67C3325.46 1102.67 3329.3 1117.34 3329.3 1134.67C3329.3 1152.01 3325.3 1167.34 3317.3 1180.67C3309.63 1194.01 3299.13 1205.17 3285.8 1214.17C3272.46 1223.51 3257.63 1230.51 3241.3 1235.17C3225.3 1240.17 3208.96 1242.67 3192.3 1242.67ZM3415.99 1227.17C3398.65 1227.17 3384.32 1221.67 3372.99 1210.67C3361.99 1200.01 3356.49 1183.51 3356.49 1161.17C3356.49 1144.84 3359.65 1128.84 3365.99 1113.17C3372.32 1097.51 3380.82 1083.51 3391.49 1071.17C3402.15 1058.51 3413.99 1048.51 3426.99 1041.17C3440.32 1033.84 3453.82 1030.17 3467.49 1030.17C3481.49 1030.17 3491.49 1033.67 3497.49 1040.67C3503.82 1047.67 3506.99 1055.84 3506.99 1065.17C3506.99 1074.51 3504.65 1083.67 3499.99 1092.67C3495.65 1101.34 3489.65 1105.67 3481.99 1105.67C3475.65 1105.67 3470.49 1102.51 3466.49 1096.17C3469.82 1093.84 3473.32 1089.51 3476.99 1083.17C3480.65 1076.84 3482.49 1068.67 3482.49 1058.67C3482.49 1056.01 3481.82 1054.01 3480.49 1052.67C3479.15 1051.01 3476.65 1050.17 3472.99 1050.17C3464.65 1050.17 3455.82 1054.01 3446.49 1061.67C3437.49 1069.01 3428.99 1078.67 3420.99 1090.67C3413.32 1102.34 3406.99 1114.84 3401.99 1128.17C3397.32 1141.17 3394.99 1153.17 3394.99 1164.17C3394.99 1173.51 3397.32 1182.17 3401.99 1190.17C3406.99 1197.84 3416.49 1201.67 3430.49 1201.67C3443.15 1201.67 3456.32 1198.01 3469.99 1190.67C3483.65 1183.34 3496.49 1173.17 3508.49 1160.17C3520.49 1146.84 3530.15 1131.01 3537.49 1112.67L3547.49 1121.67C3539.49 1142.01 3528.32 1160.17 3513.99 1176.17C3499.99 1191.84 3484.32 1204.17 3466.99 1213.17C3449.99 1222.51 3432.99 1227.17 3415.99 1227.17ZM3565.99 1214.17C3551.33 1214.17 3540.33 1209.84 3532.99 1201.17C3525.66 1192.51 3521.99 1182.01 3521.99 1169.67C3521.99 1162.01 3523.33 1152.34 3525.99 1140.67C3528.66 1129.01 3532.33 1116.84 3536.99 1104.17C3541.99 1091.17 3547.66 1079.01 3553.99 1067.67C3560.33 1056.34 3567.16 1047.17 3574.49 1040.17C3581.83 1032.84 3589.16 1029.17 3596.49 1029.17C3600.49 1029.17 3603.99 1030.51 3606.99 1033.17C3609.99 1035.51 3611.49 1039.01 3611.49 1043.67C3611.49 1048.01 3608.83 1054.51 3603.49 1063.17C3598.49 1071.84 3592.49 1081.84 3585.49 1093.17C3578.83 1104.51 3572.83 1116.34 3567.49 1128.67C3562.49 1140.67 3559.99 1152.17 3559.99 1163.17C3559.99 1173.84 3561.83 1181.01 3565.49 1184.67C3569.49 1188.01 3575.16 1189.67 3582.49 1189.67C3593.83 1189.67 3606.16 1184.01 3619.49 1172.67C3632.83 1161.34 3646.66 1141.51 3660.99 1113.17L3668.49 1121.17C3656.83 1150.51 3641.99 1173.34 3623.99 1189.67C3605.99 1206.01 3586.66 1214.17 3565.99 1214.17ZM3624.99 988.672C3618.66 988.672 3612.83 987.172 3607.49 984.172C3602.49 980.839 3599.99 975.839 3599.99 969.172C3599.99 961.172 3604.33 954.339 3612.99 948.672C3621.66 943.005 3630.66 940.172 3639.99 940.172C3645.99 940.172 3650.99 941.505 3654.99 944.172C3659.33 946.839 3661.49 951.672 3661.49 958.672C3661.49 965.672 3657.66 972.505 3649.99 979.172C3642.33 985.505 3633.99 988.672 3624.99 988.672ZM3706.06 1221.17C3684.73 1221.17 3668.23 1215.34 3656.56 1203.67C3645.23 1192.34 3639.56 1178.01 3639.56 1160.67C3639.56 1146.01 3643.23 1130.51 3650.56 1114.17C3658.23 1097.51 3668.4 1082.01 3681.06 1067.67C3693.73 1053.01 3707.73 1041.17 3723.06 1032.17C3738.4 1023.17 3753.73 1018.67 3769.06 1018.67C3777.73 1018.67 3785.9 1021.01 3793.56 1025.67C3801.56 1030.01 3805.56 1038.84 3805.56 1052.17C3805.56 1064.84 3801.9 1076.67 3794.56 1087.67C3787.23 1098.67 3777.4 1108.51 3765.06 1117.17C3752.73 1125.84 3739.06 1133.01 3724.06 1138.67C3709.4 1144.01 3694.56 1147.51 3679.56 1149.17C3679.23 1150.51 3678.9 1152.01 3678.56 1153.67C3678.56 1155.01 3678.56 1157.34 3678.56 1160.67C3678.56 1162.34 3678.73 1165.34 3679.06 1169.67C3679.73 1173.67 3681.23 1178.01 3683.56 1182.67C3685.9 1187.34 3689.73 1191.34 3695.06 1194.67C3700.4 1198.01 3707.73 1199.67 3717.06 1199.67C3731.06 1199.67 3745.06 1195.84 3759.06 1188.17C3773.4 1180.17 3786.73 1169.67 3799.06 1156.67C3811.73 1143.67 3822.23 1129.17 3830.56 1113.17L3840.56 1121.17C3831.56 1141.17 3819.9 1158.67 3805.56 1173.67C3791.56 1188.67 3775.9 1200.34 3758.56 1208.67C3741.56 1217.01 3724.06 1221.17 3706.06 1221.17ZM3685.06 1130.67C3693.73 1129.67 3703.4 1126.67 3714.06 1121.67C3724.73 1116.67 3734.9 1110.34 3744.56 1102.67C3754.56 1095.01 3762.73 1086.67 3769.06 1077.67C3775.4 1068.34 3778.56 1059.01 3778.56 1049.67C3778.56 1046.01 3777.9 1043.51 3776.56 1042.17C3775.23 1040.84 3773.06 1040.17 3770.06 1040.17C3762.4 1040.17 3754.4 1043.01 3746.06 1048.67C3737.73 1054.01 3729.56 1061.17 3721.56 1070.17C3713.56 1078.84 3706.4 1088.51 3700.06 1099.17C3693.73 1109.84 3688.73 1120.34 3685.06 1130.67ZM3986.97 1209.17C3973.97 1209.17 3963.97 1205.84 3956.97 1199.17C3950.31 1192.84 3946.97 1184.67 3946.97 1174.67C3946.97 1168.01 3948.14 1161.01 3950.47 1153.67C3952.81 1146.01 3955.14 1138.34 3957.47 1130.67C3959.81 1123.01 3960.97 1115.67 3960.97 1108.67C3960.97 1101.34 3959.14 1096.34 3955.47 1093.67C3952.14 1090.67 3948.14 1089.17 3943.47 1089.17C3933.47 1089.17 3923.14 1093.34 3912.47 1101.67C3902.14 1109.67 3891.97 1119.84 3881.97 1132.17C3872.31 1144.51 3863.14 1157.34 3854.47 1170.67C3845.81 1184.01 3838.31 1196.01 3831.97 1206.67C3825.64 1206.67 3819.64 1205.51 3813.97 1203.17C3808.31 1201.17 3803.47 1197.51 3799.47 1192.17C3799.81 1190.51 3801.81 1185.51 3805.47 1177.17C3808.81 1168.51 3812.64 1158.34 3816.97 1146.67C3821.31 1134.67 3825.14 1122.17 3828.47 1109.17C3831.81 1096.17 3833.47 1084.34 3833.47 1073.67C3835.81 1071.01 3839.31 1068.34 3843.97 1065.67C3848.97 1063.01 3854.14 1061.67 3859.47 1061.67C3871.14 1061.67 3876.97 1066.67 3876.97 1076.67C3876.97 1080.67 3876.14 1086.67 3874.47 1094.67C3873.14 1102.34 3871.14 1111.17 3868.47 1121.17C3877.14 1109.51 3886.64 1098.51 3896.97 1088.17C3907.31 1077.84 3917.97 1069.51 3928.97 1063.17C3940.31 1056.51 3951.64 1053.17 3962.97 1053.17C3977.31 1053.17 3987.81 1058.01 3994.47 1067.67C4001.47 1077.34 4004.97 1088.01 4004.97 1099.67C4004.97 1109.67 4003.31 1119.01 3999.97 1127.67C3996.64 1136.34 3993.31 1144.51 3989.97 1152.17C3986.97 1159.84 3985.47 1167.34 3985.47 1174.67C3985.47 1180.01 3986.64 1183.84 3988.97 1186.17C3991.64 1188.17 3994.47 1189.17 3997.47 1189.17C4005.47 1189.17 4013.81 1185.34 4022.47 1177.67C4031.14 1170.01 4039.31 1160.34 4046.97 1148.67C4054.97 1136.67 4061.97 1124.67 4067.97 1112.67L4076.47 1119.67C4069.47 1136.01 4061.47 1151.01 4052.47 1164.67C4043.81 1178.01 4033.97 1188.84 4022.97 1197.17C4012.31 1205.17 4000.31 1209.17 3986.97 1209.17ZM4111.3 1227.17C4093.97 1227.17 4079.63 1221.67 4068.3 1210.67C4057.3 1200.01 4051.8 1183.51 4051.8 1161.17C4051.8 1144.84 4054.97 1128.84 4061.3 1113.17C4067.63 1097.51 4076.13 1083.51 4086.8 1071.17C4097.47 1058.51 4109.3 1048.51 4122.3 1041.17C4135.63 1033.84 4149.13 1030.17 4162.8 1030.17C4176.8 1030.17 4186.8 1033.67 4192.8 1040.67C4199.13 1047.67 4202.3 1055.84 4202.3 1065.17C4202.3 1074.51 4199.97 1083.67 4195.3 1092.67C4190.97 1101.34 4184.97 1105.67 4177.3 1105.67C4170.97 1105.67 4165.8 1102.51 4161.8 1096.17C4165.13 1093.84 4168.63 1089.51 4172.3 1083.17C4175.97 1076.84 4177.8 1068.67 4177.8 1058.67C4177.8 1056.01 4177.13 1054.01 4175.8 1052.67C4174.47 1051.01 4171.97 1050.17 4168.3 1050.17C4159.97 1050.17 4151.13 1054.01 4141.8 1061.67C4132.8 1069.01 4124.3 1078.67 4116.3 1090.67C4108.63 1102.34 4102.3 1114.84 4097.3 1128.17C4092.63 1141.17 4090.3 1153.17 4090.3 1164.17C4090.3 1173.51 4092.63 1182.17 4097.3 1190.17C4102.3 1197.84 4111.8 1201.67 4125.8 1201.67C4138.47 1201.67 4151.63 1198.01 4165.3 1190.67C4178.97 1183.34 4191.8 1173.17 4203.8 1160.17C4215.8 1146.84 4225.47 1131.01 4232.8 1112.67L4242.8 1121.67C4234.8 1142.01 4223.63 1160.17 4209.3 1176.17C4195.3 1191.84 4179.63 1204.17 4162.3 1213.17C4145.3 1222.51 4128.3 1227.17 4111.3 1227.17ZM4279.3 1221.17C4257.97 1221.17 4241.47 1215.34 4229.8 1203.67C4218.47 1192.34 4212.8 1178.01 4212.8 1160.67C4212.8 1146.01 4216.47 1130.51 4223.8 1114.17C4231.47 1097.51 4241.64 1082.01 4254.3 1067.67C4266.97 1053.01 4280.97 1041.17 4296.3 1032.17C4311.64 1023.17 4326.97 1018.67 4342.3 1018.67C4350.97 1018.67 4359.14 1021.01 4366.8 1025.67C4374.8 1030.01 4378.8 1038.84 4378.8 1052.17C4378.8 1064.84 4375.14 1076.67 4367.8 1087.67C4360.47 1098.67 4350.64 1108.51 4338.3 1117.17C4325.97 1125.84 4312.3 1133.01 4297.3 1138.67C4282.64 1144.01 4267.8 1147.51 4252.8 1149.17C4252.47 1150.51 4252.14 1152.01 4251.8 1153.67C4251.8 1155.01 4251.8 1157.34 4251.8 1160.67C4251.8 1162.34 4251.97 1165.34 4252.3 1169.67C4252.97 1173.67 4254.47 1178.01 4256.8 1182.67C4259.14 1187.34 4262.97 1191.34 4268.3 1194.67C4273.64 1198.01 4280.97 1199.67 4290.3 1199.67C4304.3 1199.67 4318.3 1195.84 4332.3 1188.17C4346.64 1180.17 4359.97 1169.67 4372.3 1156.67C4384.97 1143.67 4395.47 1129.17 4403.8 1113.17L4413.8 1121.17C4404.8 1141.17 4393.14 1158.67 4378.8 1173.67C4364.8 1188.67 4349.14 1200.34 4331.8 1208.67C4314.8 1217.01 4297.3 1221.17 4279.3 1221.17ZM4258.3 1130.67C4266.97 1129.67 4276.64 1126.67 4287.3 1121.67C4297.97 1116.67 4308.14 1110.34 4317.8 1102.67C4327.8 1095.01 4335.97 1086.67 4342.3 1077.67C4348.64 1068.34 4351.8 1059.01 4351.8 1049.67C4351.8 1046.01 4351.14 1043.51 4349.8 1042.17C4348.47 1040.84 4346.3 1040.17 4343.3 1040.17C4335.64 1040.17 4327.64 1043.01 4319.3 1048.67C4310.97 1054.01 4302.8 1061.17 4294.8 1070.17C4286.8 1078.84 4279.64 1088.51 4273.3 1099.17C4266.97 1109.84 4261.97 1120.34 4258.3 1130.67Z" fill="white"/>
<path d="M1548.5 2008.5C1534.94 2008.5 1524.72 2006.28 1517.83 2001.84C1510.94 1997.39 1507.39 1990.06 1507.17 1979.84C1507.17 1977.62 1508.39 1976.5 1510.83 1976.5C1512.83 1976.5 1515.83 1977.06 1519.83 1978.17C1524.06 1979.06 1531.94 1979.5 1543.5 1979.5C1563.06 1979.5 1581.06 1977.5 1597.5 1973.5C1613.94 1969.28 1628.17 1963.73 1640.17 1956.84C1652.39 1949.73 1661.83 1941.84 1668.5 1933.17C1675.17 1924.28 1678.5 1915.06 1678.5 1905.5C1678.5 1896.84 1675.83 1889.95 1670.5 1884.84C1665.39 1879.5 1658.5 1875.5 1649.83 1872.84C1641.39 1869.95 1632.06 1868.06 1621.83 1867.17C1611.83 1866.28 1601.94 1865.84 1592.17 1865.84C1587.94 1865.84 1583.72 1865.95 1579.5 1866.17C1575.28 1866.17 1571.28 1866.17 1567.5 1866.17C1562.61 1883.06 1557.83 1900.5 1553.17 1918.5C1548.5 1936.5 1543.61 1954.17 1538.5 1971.5C1531.83 1971.5 1526.06 1969.73 1521.17 1966.17C1516.28 1962.62 1513.83 1958.28 1513.83 1953.17C1513.83 1951.17 1514.17 1948.62 1514.83 1945.5C1515.72 1942.17 1516.94 1938.28 1518.5 1933.84C1519.83 1929.62 1522.06 1922.62 1525.17 1912.84C1528.5 1903.06 1532.39 1891.5 1536.83 1878.17C1541.28 1864.84 1546.17 1850.84 1551.5 1836.17C1557.06 1821.28 1562.72 1806.73 1568.5 1792.5C1574.5 1778.28 1580.39 1765.5 1586.17 1754.17C1577.28 1756.17 1569.94 1758.5 1564.17 1761.17C1558.39 1763.84 1553.83 1766.17 1550.5 1768.17C1547.17 1770.17 1544.61 1771.17 1542.83 1771.17C1541.5 1771.17 1539.72 1770.39 1537.5 1768.84C1535.5 1767.28 1533.61 1765.5 1531.83 1763.5C1530.28 1761.5 1529.5 1759.73 1529.5 1758.17C1541.5 1753.28 1553.94 1748.95 1566.83 1745.17C1579.72 1741.39 1595.28 1739.5 1613.5 1739.5C1621.5 1739.5 1630.28 1740.17 1639.83 1741.5C1649.39 1742.61 1658.5 1745.06 1667.17 1748.84C1675.83 1752.39 1682.94 1757.84 1688.5 1765.17C1694.28 1772.28 1697.17 1781.84 1697.17 1793.84C1697.17 1803.39 1695.06 1811.73 1690.83 1818.84C1686.83 1825.73 1681.39 1831.73 1674.5 1836.84C1667.61 1841.73 1660.06 1845.84 1651.83 1849.17C1643.61 1852.28 1635.5 1854.84 1627.5 1856.84C1641.28 1858.62 1652.72 1861.5 1661.83 1865.5C1671.17 1869.28 1678.5 1873.73 1683.83 1878.84C1689.39 1883.95 1693.28 1889.28 1695.5 1894.84C1697.94 1900.17 1699.17 1905.39 1699.17 1910.5C1699.17 1923.62 1695.72 1935.39 1688.83 1945.84C1681.94 1956.28 1672.83 1965.39 1661.5 1973.17C1650.39 1980.95 1638.06 1987.39 1624.5 1992.5C1611.17 1997.84 1597.83 2001.84 1584.5 2004.5C1571.17 2007.17 1559.17 2008.5 1548.5 2008.5ZM1570.83 1853.5C1583.28 1853.06 1595.5 1851.62 1607.5 1849.17C1619.5 1846.73 1630.28 1843.17 1639.83 1838.5C1649.61 1833.62 1657.39 1827.39 1663.17 1819.84C1668.94 1812.06 1671.83 1802.5 1671.83 1791.17C1671.83 1780.5 1668.94 1772.28 1663.17 1766.5C1657.39 1760.73 1649.83 1756.73 1640.5 1754.5C1631.17 1752.28 1621.17 1751.17 1610.5 1751.17C1610.28 1751.17 1610.06 1751.17 1609.83 1751.17C1609.61 1751.17 1609.39 1751.17 1609.17 1751.17C1601.61 1766.06 1594.72 1782.28 1588.5 1799.84C1582.28 1817.17 1576.39 1835.06 1570.83 1853.5ZM1726.3 2072.84C1720.74 2072.84 1715.52 2071.06 1710.63 2067.5C1705.96 2064.17 1703.63 2058.73 1703.63 2051.17C1703.63 2044.06 1705.74 2037.62 1709.96 2031.84C1714.19 2026.28 1719.63 2021.06 1726.3 2016.17C1732.96 2011.5 1740.07 2007.17 1747.63 2003.17C1755.41 1999.39 1762.85 1995.84 1769.96 1992.5C1772.41 1986.06 1775.07 1977.95 1777.96 1968.17C1781.07 1958.17 1783.74 1948.95 1785.96 1940.5C1779.07 1950.06 1771.74 1958.5 1763.96 1965.84C1756.19 1973.17 1747.52 1976.84 1737.96 1976.84C1733.96 1976.84 1729.74 1976.06 1725.3 1974.5C1720.85 1972.73 1717.07 1969.84 1713.96 1965.84C1711.07 1961.62 1709.63 1956.06 1709.63 1949.17C1709.63 1943.39 1710.63 1936.39 1712.63 1928.17C1714.85 1919.95 1717.52 1911.95 1720.63 1904.17C1723.96 1896.17 1727.41 1889.62 1730.96 1884.5C1734.52 1879.17 1737.63 1876.5 1740.3 1876.5C1741.63 1876.5 1743.52 1877.06 1745.96 1878.17C1748.63 1879.06 1751.19 1880.39 1753.63 1882.17C1756.07 1883.73 1757.63 1885.5 1758.3 1887.5C1756.3 1890.17 1754.07 1894.06 1751.63 1899.17C1749.19 1904.06 1746.85 1909.62 1744.63 1915.84C1742.41 1921.84 1740.52 1927.73 1738.96 1933.5C1737.63 1939.28 1736.96 1944.28 1736.96 1948.5C1736.96 1951.84 1737.63 1954.73 1738.96 1957.17C1740.3 1959.62 1742.85 1960.84 1746.63 1960.84C1751.52 1960.84 1756.52 1958.84 1761.63 1954.84C1766.96 1950.84 1772.07 1945.73 1776.96 1939.5C1782.07 1933.28 1786.63 1926.95 1790.63 1920.5C1791.07 1918.95 1791.52 1916.5 1791.96 1913.17C1792.41 1909.84 1793.19 1906.39 1794.3 1902.84C1795.41 1899.06 1797.3 1895.62 1799.96 1892.5C1802.85 1889.39 1806.85 1887.84 1811.96 1887.84C1813.74 1887.84 1815.41 1887.95 1816.96 1888.17C1818.52 1888.39 1820.41 1888.73 1822.63 1889.17C1822.63 1892.5 1821.41 1899.06 1818.96 1908.84C1816.74 1918.39 1813.74 1929.5 1809.96 1942.17C1806.19 1954.84 1801.96 1967.5 1797.3 1980.17C1806.63 1976.39 1816.3 1970.17 1826.3 1961.5C1836.52 1952.62 1844.74 1940.06 1850.96 1923.84L1856.63 1928.5C1853.3 1939.62 1848.19 1949.28 1841.3 1957.5C1834.63 1965.73 1827.07 1972.73 1818.63 1978.5C1810.19 1984.28 1801.63 1989.06 1792.96 1992.84C1786.96 2007.28 1780.41 2020.62 1773.3 2032.84C1766.41 2045.06 1759.07 2054.73 1751.3 2061.84C1743.52 2069.17 1735.19 2072.84 1726.3 2072.84ZM1722.96 2060.5C1727.19 2060.5 1733.07 2056.06 1740.63 2047.17C1748.19 2038.28 1755.85 2024.95 1763.63 2007.17C1756.52 2010.73 1749.3 2014.84 1741.96 2019.5C1734.85 2024.39 1728.85 2029.5 1723.96 2034.84C1719.07 2040.17 1716.63 2045.62 1716.63 2051.17C1716.63 2053.39 1717.07 2055.5 1717.96 2057.5C1719.07 2059.5 1720.74 2060.5 1722.96 2060.5ZM1886.43 1903.5C1883.32 1903.5 1880.32 1902.62 1877.43 1900.84C1874.54 1899.06 1873.09 1896.28 1873.09 1892.5C1873.09 1888.28 1875.43 1884.62 1880.09 1881.5C1884.98 1878.39 1889.87 1876.84 1894.76 1876.84C1898.09 1876.84 1900.76 1877.62 1902.76 1879.17C1904.76 1880.73 1905.76 1883.39 1905.76 1887.17C1905.76 1890.73 1903.76 1894.39 1899.76 1898.17C1895.98 1901.73 1891.54 1903.5 1886.43 1903.5ZM1867.76 1982.84C1864.65 1982.84 1861.65 1981.95 1858.76 1980.17C1855.87 1978.39 1854.43 1975.62 1854.43 1971.84C1854.43 1967.62 1856.76 1963.95 1861.43 1960.84C1866.09 1957.73 1870.98 1956.17 1876.09 1956.17C1879.43 1956.17 1882.09 1956.95 1884.09 1958.5C1886.09 1960.06 1887.09 1962.73 1887.09 1966.5C1887.09 1970.06 1885.09 1973.73 1881.09 1977.5C1877.32 1981.06 1872.87 1982.84 1867.76 1982.84Z" fill="#FE3C3C"/>
<path d="M2095.67 2008.5C2092.12 2008.5 2087.79 2007.73 2082.67 2006.17C2077.79 2004.84 2073.34 2001.95 2069.34 1997.5C2065.56 1993.28 2063.67 1987.06 2063.67 1978.84C2063.67 1971.95 2065.01 1963.62 2067.67 1953.84C2070.34 1944.06 2073.67 1933.17 2077.67 1921.17C2081.67 1909.17 2085.67 1896.28 2089.67 1882.5C2093.67 1868.5 2097.01 1854.06 2099.67 1839.17C2102.34 1824.06 2103.67 1808.73 2103.67 1793.17C2103.67 1785.39 2103.12 1778.5 2102.01 1772.5C2100.9 1766.5 2098.9 1761.84 2096.01 1758.5C2093.12 1755.17 2088.9 1753.5 2083.34 1753.5C2077.56 1753.5 2072.67 1755.17 2068.67 1758.5C2064.67 1761.84 2061.34 1766.17 2058.67 1771.5C2056.23 1776.84 2054.34 1782.39 2053.01 1788.17C2051.9 1793.95 2051.34 1799.39 2051.34 1804.5C2051.34 1808.28 2051.67 1811.95 2052.34 1815.5C2053.23 1819.06 2054.56 1822.62 2056.34 1826.17C2045.45 1826.17 2037.56 1823.62 2032.67 1818.5C2027.79 1813.39 2025.34 1807.06 2025.34 1799.5C2025.34 1792.84 2027.01 1785.95 2030.34 1778.84C2033.67 1771.73 2038.23 1765.28 2044.01 1759.5C2050.01 1753.5 2056.9 1748.73 2064.67 1745.17C2072.67 1741.39 2081.12 1739.5 2090.01 1739.5C2105.12 1739.5 2116.56 1745.06 2124.34 1756.17C2132.12 1767.06 2136.01 1782.06 2136.01 1801.17C2136.01 1813.39 2134.56 1826.17 2131.67 1839.5C2129.01 1852.84 2125.67 1866.28 2121.67 1879.84C2117.67 1893.17 2113.56 1906.17 2109.34 1918.84C2105.34 1931.5 2101.9 1943.28 2099.01 1954.17C2096.34 1964.84 2095.01 1974.17 2095.01 1982.17C2095.01 1985.73 2095.45 1988.5 2096.34 1990.5C2097.45 1992.5 2099.67 1993.5 2103.01 1993.5C2109.45 1993.5 2116.67 1990.5 2124.67 1984.5C2132.9 1978.5 2141.34 1970.39 2150.01 1960.17C2158.67 1949.73 2167.12 1937.95 2175.34 1924.84C2183.56 1911.73 2191.01 1898.06 2197.67 1883.84C2204.34 1869.62 2209.56 1855.5 2213.34 1841.5C2217.34 1827.5 2219.34 1814.62 2219.34 1802.84C2219.34 1791.06 2217.23 1782.06 2213.01 1775.84C2208.79 1769.61 2203.45 1765.39 2197.01 1763.17C2200.12 1756.5 2203.9 1751.73 2208.34 1748.84C2213.01 1745.73 2217.12 1744.17 2220.67 1744.17C2226.67 1744.17 2232.34 1747.95 2237.67 1755.5C2243.01 1763.06 2245.67 1773.73 2245.67 1787.5C2245.67 1799.5 2243.34 1813.28 2238.67 1828.84C2234.23 1844.17 2228.01 1860.17 2220.01 1876.84C2212.01 1893.28 2202.9 1909.39 2192.67 1925.17C2182.67 1940.73 2172.01 1954.84 2160.67 1967.5C2149.56 1979.95 2138.45 1989.84 2127.34 1997.17C2116.23 2004.73 2105.67 2008.5 2095.67 2008.5ZM2256.49 1989.5C2246.72 1989.5 2239.38 1986.62 2234.49 1980.84C2229.61 1975.06 2227.16 1968.06 2227.16 1959.84C2227.16 1954.73 2228.05 1948.28 2229.83 1940.5C2231.61 1932.73 2234.05 1924.62 2237.16 1916.17C2240.49 1907.5 2244.27 1899.39 2248.49 1891.84C2252.72 1884.28 2257.27 1878.17 2262.16 1873.5C2267.05 1868.62 2271.94 1866.17 2276.83 1866.17C2279.49 1866.17 2281.83 1867.06 2283.83 1868.84C2285.83 1870.39 2286.83 1872.73 2286.83 1875.84C2286.83 1878.73 2285.05 1883.06 2281.49 1888.84C2278.16 1894.62 2274.16 1901.28 2269.49 1908.84C2265.05 1916.39 2261.05 1924.28 2257.49 1932.5C2254.16 1940.5 2252.49 1948.17 2252.49 1955.5C2252.49 1962.62 2253.72 1967.39 2256.16 1969.84C2258.83 1972.06 2262.61 1973.17 2267.49 1973.17C2275.05 1973.17 2283.27 1969.39 2292.16 1961.84C2301.05 1954.28 2310.27 1941.06 2319.83 1922.17L2324.83 1927.5C2317.05 1947.06 2307.16 1962.28 2295.16 1973.17C2283.16 1984.06 2270.27 1989.5 2256.49 1989.5ZM2295.83 1839.17C2291.61 1839.17 2287.72 1838.17 2284.16 1836.17C2280.83 1833.95 2279.16 1830.62 2279.16 1826.17C2279.16 1820.84 2282.05 1816.28 2287.83 1812.5C2293.61 1808.73 2299.61 1806.84 2305.83 1806.84C2309.83 1806.84 2313.16 1807.73 2315.83 1809.5C2318.72 1811.28 2320.16 1814.5 2320.16 1819.17C2320.16 1823.84 2317.61 1828.39 2312.49 1832.84C2307.38 1837.06 2301.83 1839.17 2295.83 1839.17ZM2335.88 1992.5C2327.65 1992.5 2321.88 1988.73 2318.54 1981.17C2315.43 1973.84 2313.88 1964.28 2313.88 1952.5C2313.88 1950.06 2313.99 1945.73 2314.21 1939.5C2314.43 1933.06 2314.76 1924.17 2315.21 1912.84C2315.43 1906.17 2316.1 1901.62 2317.21 1899.17C2318.54 1896.73 2322.1 1895.5 2327.88 1895.5C2333.21 1895.5 2336.32 1896.62 2337.21 1898.84C2338.32 1900.84 2338.88 1905.06 2338.88 1911.5C2338.88 1918.17 2338.54 1925.28 2337.88 1932.84C2337.43 1940.39 2337.21 1947.73 2337.21 1954.84C2337.21 1961.73 2337.54 1966.84 2338.21 1970.17C2338.88 1973.28 2340.54 1974.84 2343.21 1974.84C2347.21 1974.84 2351.54 1972.73 2356.21 1968.5C2360.88 1964.06 2365.54 1958.5 2370.21 1951.84C2375.1 1944.95 2379.65 1937.62 2383.88 1929.84C2388.32 1921.84 2392.21 1914.17 2395.54 1906.84C2395.99 1891.73 2397.76 1881.62 2400.88 1876.5C2403.99 1871.39 2407.99 1868.84 2412.88 1868.84C2418.43 1868.84 2422.21 1870.62 2424.21 1874.17C2426.21 1877.73 2427.21 1880.84 2427.21 1883.5C2427.21 1886.84 2426.32 1889.84 2424.54 1892.5C2422.76 1895.17 2420.99 1898.84 2419.21 1903.5C2417.43 1908.17 2416.54 1915.28 2416.54 1924.84C2416.54 1927.95 2416.76 1931.39 2417.21 1935.17C2417.88 1938.73 2419.21 1941.84 2421.21 1944.5C2423.43 1946.95 2426.65 1948.17 2430.88 1948.17C2435.32 1948.17 2439.54 1946.39 2443.54 1942.84C2447.76 1939.06 2452.21 1932.62 2456.88 1923.5L2460.54 1926.5C2455.43 1938.73 2449.65 1947.28 2443.21 1952.17C2436.99 1957.06 2430.99 1959.5 2425.21 1959.5C2417.88 1959.5 2411.88 1956.62 2407.21 1950.84C2402.76 1944.84 2399.32 1937.39 2396.88 1928.5C2391.54 1938.5 2385.43 1948.39 2378.54 1958.17C2371.88 1967.95 2364.88 1976.06 2357.54 1982.5C2350.21 1989.17 2342.99 1992.5 2335.88 1992.5ZM2486.59 1994.17C2472.37 1994.17 2461.37 1990.28 2453.59 1982.5C2446.04 1974.95 2442.26 1965.39 2442.26 1953.84C2442.26 1944.06 2444.7 1933.73 2449.59 1922.84C2454.7 1911.73 2461.48 1901.39 2469.93 1891.84C2478.37 1882.06 2487.7 1874.17 2497.93 1868.17C2508.15 1862.17 2518.37 1859.17 2528.59 1859.17C2534.37 1859.17 2539.82 1860.73 2544.93 1863.84C2550.26 1866.73 2552.93 1872.62 2552.93 1881.5C2552.93 1889.95 2550.48 1897.84 2545.59 1905.17C2540.7 1912.5 2534.15 1919.06 2525.93 1924.84C2517.7 1930.62 2508.59 1935.39 2498.59 1939.17C2488.82 1942.73 2478.93 1945.06 2468.93 1946.17C2468.7 1947.06 2468.48 1948.06 2468.26 1949.17C2468.26 1950.06 2468.26 1951.62 2468.26 1953.84C2468.26 1954.95 2468.37 1956.95 2468.59 1959.84C2469.04 1962.5 2470.04 1965.39 2471.59 1968.5C2473.15 1971.62 2475.7 1974.28 2479.26 1976.5C2482.82 1978.73 2487.7 1979.84 2493.93 1979.84C2503.26 1979.84 2512.59 1977.28 2521.93 1972.17C2531.48 1966.84 2540.37 1959.84 2548.59 1951.17C2557.04 1942.5 2564.04 1932.84 2569.59 1922.17L2576.26 1927.5C2570.26 1940.84 2562.48 1952.5 2552.93 1962.5C2543.59 1972.5 2533.15 1980.28 2521.59 1985.84C2510.26 1991.39 2498.59 1994.17 2486.59 1994.17ZM2472.59 1933.84C2478.37 1933.17 2484.82 1931.17 2491.93 1927.84C2499.04 1924.5 2505.82 1920.28 2512.26 1915.17C2518.93 1910.06 2524.37 1904.5 2528.59 1898.5C2532.82 1892.28 2534.93 1886.06 2534.93 1879.84C2534.93 1877.39 2534.48 1875.73 2533.59 1874.84C2532.7 1873.95 2531.26 1873.5 2529.26 1873.5C2524.15 1873.5 2518.82 1875.39 2513.26 1879.17C2507.7 1882.73 2502.26 1887.5 2496.93 1893.5C2491.59 1899.28 2486.82 1905.73 2482.59 1912.84C2478.37 1919.95 2475.04 1926.95 2472.59 1933.84ZM2667.2 1992.17C2660.31 1992.17 2654.31 1989.95 2649.2 1985.5C2644.09 1981.06 2639.98 1975.5 2636.87 1968.84C2633.76 1962.17 2631.42 1955.39 2629.87 1948.5C2628.31 1941.39 2627.53 1935.28 2627.53 1930.17C2630.65 1929.5 2634.53 1928.5 2639.2 1927.17C2643.87 1925.84 2648.65 1924.06 2653.53 1921.84C2658.42 1919.39 2662.42 1916.5 2665.53 1913.17C2668.87 1909.62 2670.53 1905.39 2670.53 1900.5C2670.53 1896.5 2669.2 1893.28 2666.53 1890.84C2664.09 1888.39 2660.53 1887.17 2655.87 1887.17C2649.65 1887.17 2643.76 1889.28 2638.2 1893.5C2632.65 1897.5 2627.42 1902.84 2622.53 1909.5C2617.87 1916.17 2613.53 1923.39 2609.53 1931.17C2605.76 1938.95 2602.31 1946.5 2599.2 1953.84C2596.31 1961.17 2593.87 1967.5 2591.87 1972.84C2589.42 1979.5 2587.09 1983.95 2584.87 1986.17C2582.65 1988.62 2579.42 1989.84 2575.2 1989.84C2573.65 1989.84 2571.76 1989.39 2569.53 1988.5C2567.53 1987.62 2565.76 1985.39 2564.2 1981.84C2562.87 1978.28 2562.2 1972.62 2562.2 1964.84C2562.2 1951.28 2564.09 1936.39 2567.87 1920.17C2571.65 1903.95 2576.65 1887.5 2582.87 1870.84C2589.31 1853.95 2596.31 1837.84 2603.87 1822.5C2611.42 1807.17 2619.09 1793.39 2626.87 1781.17C2634.65 1768.95 2641.87 1759.28 2648.53 1752.17C2655.42 1745.06 2661.09 1741.5 2665.53 1741.5C2669.31 1741.5 2672.42 1743.84 2674.87 1748.5C2677.53 1752.95 2678.87 1758.73 2678.87 1765.84C2678.87 1773.39 2677.2 1781.84 2673.87 1791.17C2670.53 1800.28 2665.76 1809.61 2659.53 1819.17C2653.53 1828.5 2646.31 1837.39 2637.87 1845.84C2629.42 1854.28 2620.09 1861.5 2609.87 1867.5C2603.65 1881.95 2598.87 1896.28 2595.53 1910.5C2592.2 1924.5 2590.09 1936.95 2589.2 1947.84C2593.2 1938.73 2597.76 1929.39 2602.87 1919.84C2607.98 1910.28 2613.65 1901.39 2619.87 1893.17C2626.09 1884.73 2632.76 1877.95 2639.87 1872.84C2647.2 1867.73 2654.98 1865.17 2663.2 1865.17C2672.09 1865.17 2679.87 1868.28 2686.53 1874.5C2693.2 1880.73 2696.53 1888.5 2696.53 1897.84C2696.53 1904.5 2694.76 1910.28 2691.2 1915.17C2687.65 1920.06 2683.2 1924.17 2677.87 1927.5C2672.76 1930.62 2667.53 1932.95 2662.2 1934.5C2656.87 1936.06 2652.31 1936.95 2648.53 1937.17C2649.2 1940.06 2650.09 1943.73 2651.2 1948.17C2652.53 1952.62 2654.2 1956.95 2656.2 1961.17C2658.2 1965.39 2660.76 1968.95 2663.87 1971.84C2666.98 1974.73 2670.65 1976.17 2674.87 1976.17C2680.42 1976.17 2686.09 1973.62 2691.87 1968.5C2697.87 1963.39 2703.65 1956.62 2709.2 1948.17C2714.98 1939.73 2720.09 1930.39 2724.53 1920.17L2729.2 1925.84C2725.42 1936.95 2720.2 1947.62 2713.53 1957.84C2707.09 1968.06 2699.87 1976.28 2691.87 1982.5C2683.87 1988.95 2675.65 1992.17 2667.2 1992.17ZM2619.53 1844.84C2625.53 1839.5 2631.87 1832.95 2638.53 1825.17C2645.2 1817.17 2650.87 1808.73 2655.53 1799.84C2660.42 1790.73 2662.98 1782.06 2663.2 1773.84C2663.2 1773.61 2663.2 1773.5 2663.2 1773.5C2663.2 1773.28 2663.2 1773.06 2663.2 1772.84C2660.98 1773.73 2657.42 1777.61 2652.53 1784.5C2647.87 1791.17 2642.65 1799.73 2636.87 1810.17C2631.09 1820.62 2625.31 1832.17 2619.53 1844.84ZM2841.09 2008.5C2834.43 2008.5 2828.09 2006.73 2822.09 2003.17C2816.32 1999.62 2813.43 1995.06 2813.43 1989.5C2813.43 1986.62 2813.87 1983.5 2814.76 1980.17C2815.87 1976.84 2816.87 1973.73 2817.76 1970.84C2824.65 1949.73 2831.09 1930.06 2837.09 1911.84C2843.09 1893.39 2849.09 1875.73 2855.09 1858.84C2861.32 1841.73 2867.76 1824.62 2874.43 1807.5C2881.32 1790.39 2888.98 1772.5 2897.43 1753.84C2888.98 1755.61 2881.76 1757.95 2875.76 1760.84C2869.76 1763.5 2864.87 1765.95 2861.09 1768.17C2857.32 1770.17 2854.54 1771.17 2852.76 1771.17C2851.65 1771.17 2849.98 1770.39 2847.76 1768.84C2845.76 1767.28 2843.98 1765.5 2842.43 1763.5C2840.87 1761.5 2840.09 1759.73 2840.09 1758.17C2846.32 1755.5 2853.54 1752.73 2861.76 1749.84C2870.2 1746.95 2879.32 1744.5 2889.09 1742.5C2898.87 1740.5 2908.65 1739.5 2918.43 1739.5C2928.87 1739.5 2939.54 1740.95 2950.43 1743.84C2961.32 1746.5 2971.32 1750.61 2980.43 1756.17C2989.76 1761.5 2997.2 1768.28 3002.76 1776.5C3008.54 1784.5 3011.43 1793.95 3011.43 1804.84C3011.43 1816.62 3008.76 1826.73 3003.43 1835.17C2998.09 1843.62 2990.98 1850.73 2982.09 1856.5C2973.43 1862.28 2963.98 1866.95 2953.76 1870.5C2943.54 1874.06 2933.32 1876.73 2923.09 1878.5C2913.09 1880.28 2904.09 1881.5 2896.09 1882.17C2888.09 1882.84 2882.09 1883.17 2878.09 1883.17H2876.09C2869.87 1905.17 2863.76 1927.17 2857.76 1949.17C2851.76 1970.95 2846.2 1990.73 2841.09 2008.5ZM2879.09 1872.84C2891.54 1871.95 2903.98 1869.84 2916.43 1866.5C2928.87 1863.17 2940.09 1858.62 2950.09 1852.84C2960.32 1846.84 2968.43 1839.39 2974.43 1830.5C2980.65 1821.62 2983.76 1811.28 2983.76 1799.5C2983.76 1788.39 2980.76 1779.39 2974.76 1772.5C2968.98 1765.62 2961.43 1760.39 2952.09 1756.84C2942.98 1753.28 2933.32 1751.39 2923.09 1751.17C2915.09 1766.73 2907.43 1785.17 2900.09 1806.5C2892.76 1827.62 2885.76 1849.73 2879.09 1872.84ZM2984.82 1995.17C2977.49 1995.17 2971.16 1992.73 2965.82 1987.84C2960.27 1982.95 2957.49 1975.62 2957.49 1965.84C2957.49 1958.06 2959.27 1949.62 2962.82 1940.5C2966.38 1931.39 2971.27 1922.39 2977.49 1913.5C2983.71 1904.62 2990.82 1896.62 2998.82 1889.5C3006.82 1882.17 3015.38 1876.28 3024.49 1871.84C3033.6 1867.39 3042.71 1865.17 3051.82 1865.17C3061.38 1865.17 3069.49 1867.62 3076.16 1872.5C3082.82 1877.39 3086.16 1883.84 3086.16 1891.84C3086.16 1897.84 3084.05 1902.17 3079.82 1904.84C3075.6 1907.5 3070.6 1908.28 3064.82 1907.17C3065.27 1905.17 3065.6 1903.17 3065.82 1901.17C3066.27 1899.17 3066.49 1897.06 3066.49 1894.84C3066.49 1890.39 3065.6 1886.39 3063.82 1882.84C3062.05 1879.28 3058.27 1877.5 3052.49 1877.5C3046.27 1877.5 3039.93 1879.62 3033.49 1883.84C3027.05 1888.06 3020.82 1893.62 3014.82 1900.5C3009.05 1907.17 3003.82 1914.62 2999.16 1922.84C2994.49 1930.84 2990.82 1938.73 2988.16 1946.5C2985.49 1954.28 2984.16 1961.28 2984.16 1967.5C2984.16 1974.62 2986.71 1978.17 2991.82 1978.17C2996.93 1978.17 3002.6 1975.73 3008.82 1970.84C3015.05 1965.73 3021.27 1959.39 3027.49 1951.84C3033.93 1944.28 3040.05 1936.62 3045.82 1928.84C3051.6 1920.84 3056.6 1914.06 3060.82 1908.5C3061.49 1907.39 3062.38 1906.84 3063.49 1906.84C3064.38 1907.06 3066.05 1907.62 3068.49 1908.5C3071.16 1909.17 3073.6 1910.28 3075.82 1911.84C3078.05 1913.39 3079.16 1915.39 3079.16 1917.84C3079.16 1920.06 3078.16 1922.95 3076.16 1926.5C3074.38 1929.84 3072.16 1933.62 3069.49 1937.84C3067.05 1941.84 3064.82 1945.95 3062.82 1950.17C3061.05 1954.17 3060.16 1958.06 3060.16 1961.84C3060.16 1964.73 3060.93 1967.5 3062.49 1970.17C3064.05 1972.62 3066.6 1973.84 3070.16 1973.84C3075.49 1973.84 3082.93 1969.95 3092.49 1962.17C3102.27 1954.17 3112.16 1940.73 3122.16 1921.84L3128.49 1928.17C3123.16 1940.17 3116.71 1950.84 3109.16 1960.17C3101.82 1969.28 3094.05 1976.39 3085.82 1981.5C3077.6 1986.84 3069.27 1989.5 3060.82 1989.5C3051.71 1989.5 3044.93 1986.62 3040.49 1980.84C3036.05 1975.06 3033.6 1968.84 3033.16 1962.17C3033.16 1961.73 3033.16 1961.39 3033.16 1961.17C3033.16 1960.95 3033.16 1960.73 3033.16 1960.5C3024.27 1971.17 3016.05 1979.62 3008.49 1985.84C3001.16 1992.06 2993.27 1995.17 2984.82 1995.17ZM3137.27 1989.5C3133.05 1989.5 3128.71 1988.39 3124.27 1986.17C3120.05 1984.17 3116.49 1980.95 3113.6 1976.5C3110.49 1972.06 3108.93 1966.39 3108.93 1959.5C3108.93 1952.17 3110.71 1943.95 3114.27 1934.84C3117.82 1925.73 3122.6 1916.62 3128.6 1907.5C3134.82 1898.39 3141.93 1890.06 3149.93 1882.5C3158.16 1874.95 3166.82 1868.84 3175.93 1864.17C3185.05 1859.5 3194.27 1857.17 3203.6 1857.17C3208.71 1857.17 3212.71 1858.06 3215.6 1859.84C3218.49 1861.39 3219.93 1864.06 3219.93 1867.84C3219.93 1868.95 3219.71 1870.28 3219.27 1871.84C3218.82 1873.17 3217.71 1874.39 3215.93 1875.5C3215.05 1874.17 3213.49 1873.28 3211.27 1872.84C3209.05 1872.17 3206.71 1871.84 3204.27 1871.84C3196.93 1871.84 3189.93 1873.95 3183.27 1878.17C3176.6 1882.17 3170.49 1887.39 3164.93 1893.84C3159.38 1900.28 3154.49 1907.28 3150.27 1914.84C3146.27 1922.39 3143.16 1929.73 3140.93 1936.84C3138.71 1943.73 3137.6 1949.73 3137.6 1954.84C3137.6 1959.06 3138.49 1962.5 3140.27 1965.17C3142.05 1967.62 3144.71 1968.84 3148.27 1968.84C3154.27 1968.84 3161.38 1965.39 3169.6 1958.5C3178.05 1951.39 3186.6 1941.28 3195.27 1928.17C3204.16 1914.84 3212.16 1898.95 3219.27 1880.5C3224.16 1867.84 3229.27 1854.95 3234.6 1841.84C3239.93 1828.5 3245.27 1815.73 3250.6 1803.5C3255.93 1791.28 3261.16 1780.39 3266.27 1770.84C3271.6 1761.28 3276.6 1753.73 3281.27 1748.17C3286.16 1742.39 3290.6 1739.5 3294.6 1739.5C3297.05 1739.5 3299.16 1740.5 3300.93 1742.5C3302.93 1744.28 3303.93 1746.62 3303.93 1749.5C3303.93 1753.28 3302.05 1759.39 3298.27 1767.84C3294.71 1776.06 3290.05 1785.95 3284.27 1797.5C3278.71 1809.06 3272.6 1821.62 3265.93 1835.17C3259.49 1848.5 3253.38 1862.28 3247.6 1876.5C3242.05 1890.5 3237.38 1904.39 3233.6 1918.17C3230.05 1931.73 3228.27 1944.5 3228.27 1956.5C3228.27 1961.84 3228.71 1965.5 3229.6 1967.5C3230.71 1969.28 3232.49 1970.17 3234.93 1970.17C3239.82 1970.17 3245.27 1968.28 3251.27 1964.5C3257.27 1960.73 3263.38 1955.17 3269.6 1947.84C3275.82 1940.28 3281.49 1931.28 3286.6 1920.84L3292.93 1926.17C3288.05 1938.39 3281.82 1949.17 3274.27 1958.5C3266.71 1967.84 3258.6 1975.06 3249.93 1980.17C3241.27 1985.5 3232.71 1988.17 3224.27 1988.17C3215.16 1988.17 3208.82 1985.28 3205.27 1979.5C3201.71 1973.73 3199.93 1966.95 3199.93 1959.17C3199.93 1955.62 3200.16 1952.06 3200.6 1948.5C3201.27 1944.73 3201.93 1941.06 3202.6 1937.5C3195.71 1947.5 3188.38 1956.5 3180.6 1964.5C3173.05 1972.28 3165.6 1978.39 3158.27 1982.84C3150.93 1987.28 3143.93 1989.5 3137.27 1989.5ZM3304.67 1989.5C3294.89 1989.5 3287.56 1986.62 3282.67 1980.84C3277.78 1975.06 3275.34 1968.06 3275.34 1959.84C3275.34 1954.73 3276.23 1948.28 3278.01 1940.5C3279.78 1932.73 3282.23 1924.62 3285.34 1916.17C3288.67 1907.5 3292.45 1899.39 3296.67 1891.84C3300.89 1884.28 3305.45 1878.17 3310.34 1873.5C3315.23 1868.62 3320.12 1866.17 3325.01 1866.17C3327.67 1866.17 3330.01 1867.06 3332.01 1868.84C3334.01 1870.39 3335.01 1872.73 3335.01 1875.84C3335.01 1878.73 3333.23 1883.06 3329.67 1888.84C3326.34 1894.62 3322.34 1901.28 3317.67 1908.84C3313.23 1916.39 3309.23 1924.28 3305.67 1932.5C3302.34 1940.5 3300.67 1948.17 3300.67 1955.5C3300.67 1962.62 3301.89 1967.39 3304.34 1969.84C3307.01 1972.06 3310.78 1973.17 3315.67 1973.17C3323.23 1973.17 3331.45 1969.39 3340.34 1961.84C3349.23 1954.28 3358.45 1941.06 3368.01 1922.17L3373.01 1927.5C3365.23 1947.06 3355.34 1962.28 3343.34 1973.17C3331.34 1984.06 3318.45 1989.5 3304.67 1989.5ZM3344.01 1839.17C3339.78 1839.17 3335.89 1838.17 3332.34 1836.17C3329.01 1833.95 3327.34 1830.62 3327.34 1826.17C3327.34 1820.84 3330.23 1816.28 3336.01 1812.5C3341.78 1808.73 3347.78 1806.84 3354.01 1806.84C3358.01 1806.84 3361.34 1807.73 3364.01 1809.5C3366.89 1811.28 3368.34 1814.5 3368.34 1819.17C3368.34 1823.84 3365.78 1828.39 3360.67 1832.84C3355.56 1837.06 3350.01 1839.17 3344.01 1839.17ZM3378.05 1995.17C3370.72 1995.17 3364.39 1992.73 3359.05 1987.84C3353.5 1982.95 3350.72 1975.62 3350.72 1965.84C3350.72 1958.06 3352.5 1949.62 3356.05 1940.5C3359.61 1931.39 3364.5 1922.39 3370.72 1913.5C3376.94 1904.62 3384.05 1896.62 3392.05 1889.5C3400.05 1882.17 3408.61 1876.28 3417.72 1871.84C3426.83 1867.39 3435.94 1865.17 3445.05 1865.17C3454.61 1865.17 3462.72 1867.62 3469.39 1872.5C3476.05 1877.39 3479.39 1883.84 3479.39 1891.84C3479.39 1897.84 3477.27 1902.17 3473.05 1904.84C3468.83 1907.5 3463.83 1908.28 3458.05 1907.17C3458.5 1905.17 3458.83 1903.17 3459.05 1901.17C3459.5 1899.17 3459.72 1897.06 3459.72 1894.84C3459.72 1890.39 3458.83 1886.39 3457.05 1882.84C3455.27 1879.28 3451.5 1877.5 3445.72 1877.5C3439.5 1877.5 3433.16 1879.62 3426.72 1883.84C3420.27 1888.06 3414.05 1893.62 3408.05 1900.5C3402.27 1907.17 3397.05 1914.62 3392.39 1922.84C3387.72 1930.84 3384.05 1938.73 3381.39 1946.5C3378.72 1954.28 3377.39 1961.28 3377.39 1967.5C3377.39 1974.62 3379.94 1978.17 3385.05 1978.17C3390.16 1978.17 3395.83 1975.73 3402.05 1970.84C3408.27 1965.73 3414.5 1959.39 3420.72 1951.84C3427.16 1944.28 3433.27 1936.62 3439.05 1928.84C3444.83 1920.84 3449.83 1914.06 3454.05 1908.5C3454.72 1907.39 3455.61 1906.84 3456.72 1906.84C3457.61 1907.06 3459.27 1907.62 3461.72 1908.5C3464.39 1909.17 3466.83 1910.28 3469.05 1911.84C3471.27 1913.39 3472.39 1915.39 3472.39 1917.84C3472.39 1920.06 3471.39 1922.95 3469.39 1926.5C3467.61 1929.84 3465.39 1933.62 3462.72 1937.84C3460.27 1941.84 3458.05 1945.95 3456.05 1950.17C3454.27 1954.17 3453.39 1958.06 3453.39 1961.84C3453.39 1964.73 3454.16 1967.5 3455.72 1970.17C3457.27 1972.62 3459.83 1973.84 3463.39 1973.84C3468.72 1973.84 3476.16 1969.95 3485.72 1962.17C3495.5 1954.17 3505.39 1940.73 3515.39 1921.84L3521.72 1928.17C3516.39 1940.17 3509.94 1950.84 3502.39 1960.17C3495.05 1969.28 3487.27 1976.39 3479.05 1981.5C3470.83 1986.84 3462.5 1989.5 3454.05 1989.5C3444.94 1989.5 3438.16 1986.62 3433.72 1980.84C3429.27 1975.06 3426.83 1968.84 3426.39 1962.17C3426.39 1961.73 3426.39 1961.39 3426.39 1961.17C3426.39 1960.95 3426.39 1960.73 3426.39 1960.5C3417.5 1971.17 3409.27 1979.62 3401.72 1985.84C3394.39 1992.06 3386.5 1995.17 3378.05 1995.17Z" fill="white"/>
</svg>
